Coordinates
version=1
nRows=16
nColumns=22
inDegrees=yes

Units are S.I. units (second, meters, Newtons, ...)
If the header above contains a line with 'inDegrees', this indicates whether rotational values are in degrees (yes) or radians (no).

endheader
time	pelvis_tilt	pelvis_list	pelvis_rotation	pelvis_tx	pelvis_ty	pelvis_tz	hip_flexion_r	hip_adduction_r	hip_rotation_r	knee_angle_r	ankle_angle_r	subtalar_angle_r	hip_flexion_l	hip_adduction_l	hip_rotation_l	knee_angle_l	ankle_angle_l	subtalar_angle_l	lumbar_extension	lumbar_bending	lumbar_rotation
      1.22000000	     -4.37866290	     -2.90945668	     -2.67721188	      1.12430290	      0.94237868	     -0.26372131	     12.03399381	      4.52760309	     -4.64263125	    -19.91916673	     10.73943523	     -4.24390083	     11.91556192	     -5.68072051	     -4.81941875	    -21.36985147	     11.05596658	     -1.83459111	     -4.24560812	      0.75962912	      0.49495516
      1.23000000	     -4.36692030	     -2.88917089	     -2.64493361	      1.12249455	      0.94227318	     -0.26290364	     12.33714655	      4.55868885	     -4.63855230	    -20.25675914	     10.67793293	     -4.28410258	     12.35369533	     -5.71654963	     -4.62257131	    -21.92246560	     10.97291663	     -1.70891252	     -4.46516060	      0.78227229	      0.55940368
      1.24000000	     -4.36371921	     -2.85306482	     -2.57321791	      1.12059367	      0.94218702	     -0.26213693	     12.63699876	      4.56630561	     -4.67084219	    -20.55961275	     10.61374802	     -4.31675087	     12.82105919	     -5.73005767	     -4.40710891	    -22.47785713	     10.84745701	     -1.57465718	     -4.69184143	      0.79221203	      0.61350075
      1.25000000	     -4.38582196	     -2.79675424	     -2.45809759	      1.11857678	      0.94209476	     -0.26144361	     12.95830902	      4.54545442	     -4.72702712	    -20.83789037	     10.54376217	     -4.35121454	     13.33489546	     -5.71088996	     -4.14758940	    -23.03198576	     10.69102893	     -1.42713676	     -4.90785121	      0.78982434	      0.63788872
      1.26000000	     -4.43574977	     -2.72047328	     -2.29599602	      1.11644609	      0.94199254	     -0.26082458	     13.30047444	      4.49509272	     -4.81553219	    -21.08759034	     10.46858601	     -4.39263910	     13.89353661	     -5.65679366	     -3.83842261	    -23.57691625	     10.50276638	     -1.27048730	     -5.10806626	      0.77325127	      0.62385784
      1.27000000	     -4.51496170	     -2.62479450	     -2.09179745	      1.11419092	      0.94187633	     -0.26028111	     13.66182878	      4.41520797	     -4.93482967	    -21.30171431	     10.39086882	     -4.44447171	     14.49490821	     -5.56654127	     -3.48104418	    -24.10964582	     10.29755819	     -1.11342867	     -5.29188994	      0.74236713	      0.58261173
      1.28000000	     -4.61747057	     -2.51807079	     -1.85653485	      1.11179678	      0.94174468	     -0.25978580	     14.04163279	      4.31736674	     -5.07293662	    -21.49174964	     10.30910611	     -4.50809098	     15.12463773	     -5.45105684	     -3.08529527	    -24.62353020	     10.07981235	     -0.96302381	     -5.46696224	      0.70364450	      0.51701438
      1.29000000	     -4.72412824	     -2.39924734	     -1.60956752	      1.10923630	      0.94162196	     -0.25935550	     14.41721751	      4.19962278	     -5.21722819	    -21.64729173	     10.21858494	     -4.57657761	     15.75660035	     -5.30586172	     -2.65426990	    -25.12368670	      9.87857879	     -0.83577503	     -5.65803893	      0.65981574	      0.45681339
      1.30000000	     -4.82754981	     -2.28255308	     -1.37557155	      1.10648049	      0.94150517	     -0.25892942	     14.79132955	      4.08485725	     -5.34367971	    -21.78571270	     10.11420630	     -4.64780329	     16.37303091	     -5.15332132	     -2.20450899	    -25.60530066	      9.70883604	     -0.72680306	     -5.87487186	      0.61920145	      0.41195735
      1.31000000	     -4.91530213	     -2.17523602	     -1.17459145	      1.10351526	      0.94139914	     -0.25848833	     15.15476242	      3.98454116	     -5.43883135	    -21.91110223	      9.99365846	     -4.71782780	     16.95485718	     -5.00524148	     -1.74722017	    -26.07790044	      9.61039094	     -0.63067211	     -6.13181955	      0.58776939	      0.40566904
      1.32000000	     -4.97846977	     -2.08311009	     -1.01768307	      1.10037107	      0.94131128	     -0.25802846	     15.49485985	      3.90546815	     -5.50417132	    -22.01906875	      9.85103405	     -4.77907203	     17.48354540	     -4.86883007	     -1.28623218	    -26.54893992	      9.61137030	     -0.53448500	     -6.43111427	      0.57085661	      0.44723995
      1.33000000	     -5.02849926	     -2.02078907	     -0.91447663	      1.09710117	      0.94120245	     -0.25752390	     15.82674415	      3.86588776	     -5.54235293	    -22.12074161	      9.69639810	     -4.84018048	     17.96792404	     -4.76692412	     -0.84015632	    -27.04055642	      9.75488630	     -0.41275419	     -6.74771650	      0.58195588	      0.54299244
      1.34000000	     -5.06130858	     -1.99389551	     -0.84708645	      1.09379638	      0.94108117	     -0.25699272	     16.13381961	      3.86637266	     -5.58682805	    -22.20499605	      9.52813820	     -4.89171013	     18.39841639	     -4.70426395	     -0.41556996	    -27.56886948	     10.03991687	     -0.26688849	     -7.07112205	      0.62550713	      0.66566596
      1.35000000	     -5.09613859	     -2.00518435	     -0.81962459	      1.09051270	      0.94091184	     -0.25642368	     16.43446407	      3.90995586	     -5.64515229	    -22.27198448	      9.34943238	     -4.94162763	     18.79109506	     -4.68898688	     -0.02926937	    -28.15594727	     10.46161230	     -0.08212478	     -7.36492561	      0.70450955	      0.81895835
      1.36000000	     -5.13296829	     -2.05224599	     -0.82907946	      1.08728626	      0.94069769	     -0.25580048	     16.72823584	      3.99523240	     -5.71507443	    -22.32723051	      9.16066800	     -4.99095334	     19.13959158	     -4.72454196	      0.29164546	    -28.81580965	     10.99017816	      0.12279012	     -7.62238463	      0.80977876	      0.99939333
      1.37000000	     -5.18516303	     -2.11399455	     -0.88145904	      1.08412733	      0.94042277	     -0.25512160	     17.04218434	      4.09862797	     -5.80538564	    -22.39215521	      8.95684734	     -5.06093099	     19.45024201	     -4.79355066	      0.52526820	    -29.55832644	     11.60897750	      0.39817400	     -7.82185651	      0.91612326	      1.21642899
